<?xml version="1.0" encoding="UTF-8"?>
<svg version="1.1" xmlns="http://www.w3.org/2000/svg" width="1024" height="1024">
<path d="M0 0 C1.04534912 0.18308716 1.04534912 0.18308716 2.11181641 0.36987305 C3.79818807 0.69642478 5.4649854 1.12109663 7.125 1.5625 C7.455 2.2225 7.785 2.8825 8.125 3.5625 C8.455 2.9025 8.785 2.2425 9.125 1.5625 C10.115 1.5625 11.105 1.5625 12.125 1.5625 C12.125 2.2225 12.125 2.8825 12.125 3.5625 C13.11242187 3.98402344 14.09984375 4.40554687 15.1171875 4.83984375 C16.41147198 5.39319726 17.70574206 5.94658442 19 6.5 C19.97646484 6.91668945 19.97646484 6.91668945 20.97265625 7.34179688 C26.47483956 9.69582375 30.85985694 12.47945168 35.71484375 15.96875 C38.10776074 17.70091923 38.10776074 17.70091923 41.125 18.5625 C42.30712978 19.71085465 43.48321914 20.86637289 44.62109375 22.05859375 C46.29353538 23.73103538 48.06493179 25.22781541 49.875 26.75 C71.63968788 45.77878903 79.49025363 70.03992657 86.50610352 97.17230225 C87.18517356 99.7948922 87.86875063 102.41628506 88.55273438 105.03759766 C90.08583148 110.91858315 91.60769825 116.80242145 93.125 122.6875 C93.37455444 123.6532193 93.62410889 124.6189386 93.88122559 125.61392212 C94.59161271 128.36918081 95.29671014 131.12573476 96 133.8828125 C96.21521301 134.71589432 96.43042603 135.54897614 96.65216064 136.40730286 C97.44381153 139.53023745 98.125 142.32697196 98.125 145.5625 C98.785 145.8925 99.445 146.2225 100.125 146.5625 C100.7578125 148.92578125 100.7578125 148.92578125 101.25 151.875 C101.50136719 153.32326172 101.50136719 153.32326172 101.7578125 154.80078125 C102.125 157.5625 102.125 157.5625 102.125 161.5625 C102.785 161.8925 103.445 162.2225 104.125 162.5625 C104.58642578 164.38745117 104.58642578 164.38745117 104.9453125 166.91796875 C106.40415074 175.70344818 108.76729855 184.26128693 111 192.875 C111.48984968 194.77662412 111.97942714 196.67831838 112.46875 198.58007812 C116.49177047 214.19499294 120.56989125 229.7956612 124.65087891 245.39550781 C128.15819705 258.80995673 131.60713025 272.23843633 135.02365112 285.67626953 C137.88271384 296.91401319 140.79296545 308.13757787 143.75098801 319.34965324 C144.3001981 321.43138336 144.84895037 323.51323371 145.39761353 325.59510803 C147.02575558 331.7712942 148.65594661 337.94690302 150.29604053 344.11992741 C151.13930027 347.2978724 151.97730739 350.47720428 152.81640625 353.65625 C153.12113358 354.79722641 153.4258609 355.93820282 153.73982239 357.11375427 C155.5228182 363.88865969 156.98779926 370.64928766 158.125 377.5625 C159.115 377.8925 160.105 378.2225 161.125 378.5625 C160.465 378.5625 159.805 378.5625 159.125 378.5625 C159.52579496 380.0591641 159.92659325 381.5558273 160.32739258 383.05249023 C160.72516151 384.53784523 160.72516151 384.53784523 161.13096619 386.0532074 C161.73366635 388.30367923 162.3364208 390.55413652 162.93922424 392.80458069 C164.62337057 399.09211905 166.30676554 405.37985691 167.98876953 411.66796875 C168.67861538 414.24611938 169.36851764 416.82425476 170.05859375 419.40234375 C170.31704197 420.36790003 170.31704197 420.36790003 170.58071136 421.35296249 C172.88235953 429.94946981 175.20042369 438.54133065 177.53515625 447.12890625 C178.28760187 449.90414468 179.03966533 452.67948637 179.79159546 455.4548645 C180.26036205 457.18039324 180.73105667 458.90539947 181.20376587 460.62985229 C181.85679016 463.01237585 182.50326333 465.39659079 183.1484375 467.78125 C183.43020592 468.79796532 183.43020592 468.79796532 183.71766663 469.83522034 C184.6270748 473.22159961 185.26703895 476.50655429 185.62353516 479.98632812 C185.78901855 481.16646484 185.95450195 482.34660156 186.125 483.5625 C186.785 483.8925 187.445 484.2225 188.125 484.5625 C188.44780519 487.01094693 188.64251569 489.35217845 188.75 491.8125 C188.80583252 492.90014648 188.80583252 492.90014648 188.86279297 494.00976562 C189.4302813 505.92440539 188.97928135 517.67883621 188.125 529.5625 C187.465 529.5625 186.805 529.5625 186.125 529.5625 C186.063125 530.573125 186.00125 531.58375 185.9375 532.625 C183.76233225 549.32088221 175.07545166 565.07552252 164.125 577.5625 C163.53460937 578.29597656 162.94421875 579.02945313 162.3359375 579.78515625 C143.91145288 602.01214088 117.92269488 610.63550051 90.9375 617.4375 C87.63664968 618.28051988 84.33663783 619.12677497 81.03660583 619.97299194 C78.71067161 620.56911168 76.38446412 621.16416612 74.05799866 621.75820923 C65.29520945 623.99725577 56.54344591 626.27660241 47.796875 628.578125 C47.15566586 628.74682287 46.51445671 628.91552074 45.85381699 629.08933067 C42.60366497 629.94457363 39.35365155 630.80034199 36.10369873 631.65634155 C16.68439905 636.77048514 -2.74790985 641.82740835 -22.21273804 646.76565552 C-39.11096565 651.05864383 -55.94696774 655.57691598 -72.78222656 660.10968018 C-87.22844282 663.99843047 -101.68387966 667.83119788 -116.1875 671.5 C-133.86756051 675.97468523 -151.46112353 680.75928548 -169.05654907 685.55435181 C-185.62547117 690.06914205 -202.2078784 694.51606125 -218.83169556 698.82415771 C-236.27399426 703.34907252 -253.64258917 708.13678596 -271.00195312 712.96923828 C-273.07421637 713.54330287 -275.14648188 714.11735926 -277.21875 714.69140625 C-278.14921143 714.9523558 -279.07967285 715.21330536 -280.03833008 715.48216248 C-308.55440256 723.36616454 -334.76712142 721.02428214 -360.89208984 706.69970703 C-375.27451708 698.45132657 -386.97979329 687.35398166 -396.3125 673.6875 C-397.02043701 672.66462891 -397.02043701 672.66462891 -397.74267578 671.62109375 C-405.01835917 660.46659226 -408.82290537 647.22364631 -412.4609375 634.53125 C-412.88484639 633.07129708 -413.30887196 631.61137803 -413.73300171 630.15148926 C-419.29621062 610.90159755 -424.45737161 591.53778123 -429.65919876 572.18796539 C-431.95090862 563.66911512 -434.25231804 555.15287523 -436.55256081 546.63632584 C-437.12309725 544.52382073 -437.69350059 542.41127967 -438.26376915 540.29870224 C-443.09277139 522.41084754 -447.98670567 504.54200469 -452.9375 486.6875 C-457.4275676 470.4892176 -461.86633594 454.28135983 -466.12109375 438.01953125 C-468.17346384 430.17800569 -470.2738442 422.35402042 -472.55737305 414.57617188 C-473.47766755 411.37239925 -473.875 408.94771949 -473.875 405.5625 C-474.535 405.2325 -475.195 404.9025 -475.875 404.5625 C-476.41854858 402.61297607 -476.41854858 402.61297607 -476.84130859 400.09667969 C-477.77466995 394.98026658 -479.02155375 390.02388928 -480.4140625 385.015625 C-480.65625519 384.13331711 -480.89844788 383.25100922 -481.14797974 382.34196472 C-481.66355767 380.46486908 -482.18062784 378.58818275 -482.69909668 376.71188354 C-483.78178413 372.79240153 -484.85609129 368.87063901 -485.93078613 364.94895935 C-486.47104418 362.97764129 -487.01165204 361.00641906 -487.5526123 359.03529358 C-489.75666523 351.00362458 -491.94910322 342.96896809 -494.10760498 334.92492676 C-494.61529599 333.036103 -495.1271876 331.14840991 -495.63916016 329.26074219 C-495.93870605 328.1421582 -496.23825195 327.02357422 -496.546875 325.87109375 C-496.8056543 324.91001709 -497.06443359 323.94894043 -497.33105469 322.95874023 C-497.875 320.5625 -497.875 320.5625 -497.875 317.5625 C-498.535 317.2325 -499.195 316.9025 -499.875 316.5625 C-500.40962219 314.65637207 -500.40962219 314.65637207 -500.82543945 312.17382812 C-501.83768516 306.62514005 -503.20565224 301.2263895 -504.66796875 295.78125 C-504.93513702 294.77666245 -505.2023053 293.77207489 -505.47756958 292.73704529 C-506.33623867 289.51139546 -507.19927553 286.28693342 -508.0625 283.0625 C-508.65217613 280.85105663 -509.24161238 278.63954928 -509.83081055 276.42797852 C-511.50764441 270.13826139 -513.19008754 263.85005734 -514.875 257.5625 C-515.20933044 256.31469757 -515.20933044 256.31469757 -515.55041504 255.04168701 C-517.64873886 247.21262425 -519.75398492 239.38544928 -521.875 231.5625 C-522.535 231.5625 -523.195 231.5625 -523.875 231.5625 C-523.84535156 230.54542969 -523.81570313 229.52835938 -523.78515625 228.48046875 C-523.87190428 224.69750026 -524.42260874 221.54101136 -525.3125 217.875 C-531.02776456 192.16985275 -526.2538461 166.93160445 -512.77734375 144.4609375 C-509.78358255 139.89960113 -506.36331047 135.74847257 -502.875 131.5625 C-502.34390625 130.8096875 -501.8128125 130.056875 -501.265625 129.28125 C-500.80671875 128.7140625 -500.3478125 128.146875 -499.875 127.5625 C-499.215 127.5625 -498.555 127.5625 -497.875 127.5625 C-497.875 126.9025 -497.875 126.2425 -497.875 125.5625 C-497.215 125.5625 -496.555 125.5625 -495.875 125.5625 C-495.875 124.9025 -495.875 124.2425 -495.875 123.5625 C-493.74603417 121.70563514 -491.61256075 119.96716481 -489.375 118.25 C-488.73804199 117.7537915 -488.10108398 117.25758301 -487.44482422 116.74633789 C-484.06302104 114.14015793 -480.666797 111.69743069 -477 109.5 C-475.96875 108.860625 -474.9375 108.22125 -473.875 107.5625 C-473.875 106.9025 -473.875 106.2425 -473.875 105.5625 C-472.87597656 105.44777344 -471.87695312 105.33304687 -470.84765625 105.21484375 C-466.8477553 104.64227931 -463.11606573 103.46033577 -459.3125 102.125 C-458.36213867 101.79918945 -458.36213867 101.79918945 -457.39257812 101.46679688 C-454.61630677 100.51468734 -451.84794518 99.55241628 -449.09765625 98.52734375 C-446.38384781 97.71484595 -443.86402838 97.18626896 -441.08056641 96.71899414 C-434.10235028 95.47139654 -427.24368866 93.78875469 -420.36328125 92.09375 C-418.93059472 91.74341487 -417.49783802 91.39336661 -416.0650177 91.0435791 C-412.16105897 90.08956222 -408.25813557 89.13137562 -404.35547638 88.17205811 C-400.09459775 87.12497976 -395.83313792 86.0802711 -391.57177734 85.03515625 C-389.79678102 84.59970066 -388.02178714 84.16423508 -386.24679565 83.72875977 C-382.64914143 82.84617819 -379.05142314 81.96385851 -375.4536438 81.08178711 C-374.55834017 80.8622789 -373.66303654 80.64277069 -372.74060249 80.41661072 C-370.92743025 79.97209893 -369.11424233 79.52765113 -367.30103874 79.08326721 C-362.66619056 77.94712463 -358.03179936 76.80916762 -353.39819336 75.66796875 C-348.81592364 74.53952466 -344.23258168 73.41553741 -339.6484623 72.29463196 C-337.92368055 71.87203657 -336.19929649 71.44781451 -334.47533226 71.02189636 C-332.09549577 70.43416806 -329.71433159 69.85215031 -327.33276367 69.27148438 C-326.6322287 69.09703796 -325.93169373 68.92259155 -325.20993042 68.74285889 C-321.95422929 67.95517171 -319.25605377 67.5625 -315.875 67.5625 C-315.545 66.9025 -315.215 66.2425 -314.875 65.5625 C-313.02326661 65.30872005 -311.16936694 65.06648454 -309.31005859 64.87597656 C-304.6909072 64.28133145 -300.2031977 63.05500116 -295.6875 61.9375 C-293.48698897 61.40100144 -291.28646768 60.86454497 -289.0859375 60.328125 C-287.92674805 60.04388672 -286.76755859 59.75964844 -285.57324219 59.46679688 C-279.64534416 58.01730293 -273.71199602 56.59049307 -267.77914429 55.16143799 C-264.63241637 54.40311382 -261.48613748 53.64293612 -258.33984375 52.8828125 C-257.284021 52.62773926 -256.22819824 52.37266602 -255.14038086 52.10986328 C-254.39280518 51.9292334 -253.64522949 51.74860352 -252.875 51.5625 C-252.875 50.9025 -252.875 50.2425 -252.875 49.5625 C-251.82828125 49.62566406 -250.7815625 49.68882812 -249.703125 49.75390625 C-243.48020263 49.74436189 -237.62066903 48.02305941 -231.625 46.5 C-229.74421753 46.03388306 -229.74421753 46.03388306 -227.82543945 45.55834961 C-224.51574871 44.73799359 -221.20894729 43.90653941 -217.90264893 43.07263184 C-214.51882465 42.22130276 -211.1323507 41.38065262 -207.74609375 40.5390625 C-201.11978486 38.8905679 -194.49647113 37.23031704 -187.875 35.5625 C-187.875 34.9025 -187.875 34.2425 -187.875 33.5625 C-186.8533374 33.63210937 -185.8316748 33.70171875 -184.77905273 33.7734375 C-178.13550214 33.75891945 -171.80599612 31.8140926 -165.41015625 30.1875 C-163.96212053 29.82656326 -162.51387247 29.46647748 -161.06542969 29.10717773 C-157.96919515 28.33733864 -154.87447078 27.56178465 -151.78079224 26.78173828 C-146.89806517 25.55093221 -142.01172304 24.33493743 -137.12475586 23.12109375 C-123.09262689 19.63266821 -109.06787309 16.11492552 -95.04512882 12.58898926 C-89.11231127 11.09786814 -83.17751952 9.61476348 -77.24140072 8.13684082 C-73.77551162 7.27334532 -70.31094011 6.40519403 -66.84915161 5.52539062 C-43.83456164 -0.32150125 -23.63460747 -4.18897946 0 0 Z " fill="#FE3B0C" transform="translate(683.875,150.4375)"/>
<path d="M0 0 C2.59174475 2.82875751 3.68759486 5.57911749 4.76171875 9.2265625 C5.2263855 10.76086914 5.2263855 10.76086914 5.70043945 12.32617188 C6.02616943 13.41478516 6.35189941 14.50339844 6.6875 15.625 C14.17111148 39.64706516 24.90836758 59.45040337 42 78 C42.68578125 78.75667969 43.3715625 79.51335937 44.078125 80.29296875 C59.98766598 97.03809486 81.35607542 107.00396325 101.62304688 117.33740234 C118.15469112 125.76880064 133.60230017 135.25336058 148 147 C148.5681543 147.45987305 149.13630859 147.91974609 149.72167969 148.39355469 C168.04813996 163.32360533 183.3415647 181.40503681 195 202 C195.35513672 202.61214355 195.71027344 203.22428711 196.07617188 203.85498047 C209.19085914 226.58975679 218.12936189 253.32823694 218.16796875 279.75 C218.17129715 280.56637939 218.17462555 281.38275879 218.17805481 282.22387695 C218.18308926 283.94498131 218.18546422 285.66609532 218.18530273 287.38720703 C218.18747085 289.96534199 218.20561315 292.54303526 218.22460938 295.12109375 C218.27539025 309.49829815 217.13626646 323.30424457 213.375 337.25 C213.11630127 338.2188916 212.85760254 339.1877832 212.59106445 340.18603516 C205.14862876 367.05066467 191.97843561 389.88920538 174 411 C172.98099609 412.20462891 172.98099609 412.20462891 171.94140625 413.43359375 C167.62948666 418.41793745 163.11498741 422.84732378 158 427 C156.58074219 428.15822266 156.58074219 428.15822266 155.1328125 429.33984375 C117.85899351 459.1844967 71.31338785 470.16255359 24.21484375 465.5390625 C19.74217559 464.96139813 15.37762152 464.07556131 11 463 C9.7620166 462.70198486 9.7620166 462.70198486 8.49902344 462.39794922 C-31.51783759 452.48653744 -66.80648704 429.72514009 -92 397 C-93.16789062 395.51693359 -93.16789062 395.51693359 -94.359375 394.00390625 C-118.25142615 362.77409575 -129.47585706 323.67709074 -129.375 284.75 C-129.37478851 283.98885895 -129.37457703 283.2277179 -129.37435913 282.44351196 C-129.34070896 270.26231133 -128.50458028 258.73719953 -125 247 C-124.71914551 246.03078613 -124.71914551 246.03078613 -124.43261719 245.04199219 C-120.27684542 231.12482214 -113.19898288 215.0482783 -100.125 207.375 C-94.19314324 204.87175645 -87.7298371 205.12439187 -81.6875 207.0625 C-73.4604654 212.99361797 -70.42071534 220.64674689 -68.1875 230.375 C-65.90521704 239.51089083 -61.92285248 246.71809834 -54 252 C-45.28535632 256.14743158 -36.45841135 256.06947045 -27.390625 253.046875 C-20.09230171 249.85087722 -14.99454172 244.7041489 -11.25 237.75 C-7.21162154 225.83678353 -9.77987486 212.0471109 -15 201 C-21.03062474 189.05550996 -28.89248043 178.16387346 -36.48974609 167.18798828 C-54.6574264 140.86746599 -63.53423991 113.3233509 -58.31640625 80.83984375 C-52.62420694 52.80490064 -33.93826825 19.84286146 -11.08984375 2.5546875 C-7.38345368 0.2249566 -4.3347159 -0.78813016 0 0 Z " fill="#FEFEFE" transform="translate(482,241)"/>
<path d="M0 0 C-2.19366004 3.29049006 -2.49378249 3.43733635 -6.07666016 4.35595703 C-6.93366013 4.58185013 -7.7906601 4.80774323 -8.67362976 5.04048157 C-9.61922256 5.27720078 -10.56481537 5.51391998 -11.5390625 5.7578125 C-13.03630608 6.14763557 -13.03630608 6.14763557 -14.563797 6.54533386 C-16.75328041 7.11390352 -18.94415856 7.67712176 -21.13619995 8.23574829 C-24.68607942 9.14056838 -28.2321818 10.05901789 -31.77758789 10.98120117 C-35.56415447 11.96562699 -39.35086561 12.94943704 -43.13899231 13.92784119 C-56.92222602 17.4879768 -70.68398811 21.12790135 -84.44236755 24.78274918 C-86.4397469 25.3130966 -88.43731434 25.84272989 -90.43493652 26.37216187 C-105.80642984 30.44691365 -121.1625701 34.57352767 -136.49609375 38.7890625 C-137.56815347 39.08370046 -137.56815347 39.08370046 -138.66187096 39.3842907 C-145.57181712 41.28391816 -152.4804783 43.1880754 -159.38574696 45.10464096 C-161.29440711 45.63397382 -163.20354241 46.16159243 -165.11268616 46.68917847 C-167.42531294 47.32829764 -169.73717953 47.97017741 -172.04808044 48.61550903 C-201.52694328 56.7496536 -226.86238287 54.29140784 -254 40 C-253.01 39.34 -252.02 38.68 -251 38 C-250.67 38.66 -250.34 39.32 -250 40 C-248.19220395 40.80681555 -248.19220395 40.80681555 -246 41.4375 C-244.77410156 41.82228516 -244.77410156 41.82228516 -243.5234375 42.21484375 C-242.27433594 42.60349609 -242.27433594 42.60349609 -241 43 C-239.54083259 43.49756062 -238.08247797 43.99751211 -236.625 44.5 C-227.75928263 47.42445538 -219.35933536 49.57806275 -210 50 C-209.01515625 50.05285156 -208.0303125 50.10570312 -207.015625 50.16015625 C-190.03314612 50.64597343 -173.953036 45.53582278 -157.81982422 40.82202148 C-151.62900674 39.01730439 -145.42375563 37.30363641 -139.18359375 35.6796875 C-138.34188629 35.45982681 -137.50017883 35.23996613 -136.63296509 35.01344299 C-133.90132531 34.29992975 -131.16942745 33.5874109 -128.4375 32.875 C-112.67935716 28.76621698 -112.67935716 28.76621698 -96.9453125 24.56640625 C-95.9203643 24.29008362 -95.9203643 24.29008362 -94.87471008 24.00817871 C-91.74945589 23.16520833 -88.62554691 22.31777779 -85.50366211 21.46240234 C-66.40214769 16.29892616 -66.40214769 16.29892616 -63 18 C-63 17.34 -63 16.68 -63 16 C-38.49285585 8.77786732 -38.49285585 8.77786732 -27.73828125 5.9765625 C-24.83426401 5.21793731 -21.93801957 4.44004866 -19.04296875 3.6484375 C-17.32032065 3.18226155 -15.59766448 2.71611542 -13.875 2.25 C-13.06828857 2.02683105 -12.26157715 1.80366211 -11.43041992 1.57373047 C-7.5311793 0.52762285 -4.07850845 -0.29483194 0 0 Z " fill="#F9121B" transform="translate(577,817)"/>
<path d="M0 0 C0.99 0 1.98 0 3 0 C3.20753906 0.79277344 3.41507813 1.58554687 3.62890625 2.40234375 C5.56528717 9.7346648 7.56946806 17.04375314 9.63427734 24.34106445 C17.20968938 51.14192382 17.20968938 51.14192382 17 58 C17.66 58.33 18.32 58.66 19 59 C19.71435547 60.92675781 19.71435547 60.92675781 20.3671875 63.453125 C20.61098145 64.37585205 20.85477539 65.2985791 21.10595703 66.24926758 C21.35974121 67.23950928 21.61352539 68.22975098 21.875 69.25 C22.40975111 71.28039832 22.94620098 73.31035002 23.484375 75.33984375 C23.87399414 76.81300049 23.87399414 76.81300049 24.27148438 78.31591797 C25.13846972 81.51016624 26.11105796 84.66203724 27.125 87.8125 C28.75974169 93.00247259 30.01465781 98.23891726 31.21044922 103.54199219 C34.03704013 115.7986986 37.60432983 127.89149489 41 140 C40.01 140.99 39.02 141.98 38 143 C29.98883183 113.66970946 21.98688381 84.33691337 14 55 C13.77909195 54.18866356 13.5581839 53.37732712 13.33058167 52.54140472 C11.00998207 44.01791296 8.69324345 35.49340532 6.38726807 26.96594238 C5.79755408 24.78695793 5.20653811 22.60832541 4.61419678 20.43005371 C3.81208234 17.47907613 3.01467159 14.52687161 2.21875 11.57421875 C1.9887027 10.73160995 1.7586554 9.88900116 1.52163696 9.02085876 C0.69388775 5.93248138 0 3.21273284 0 0 Z " fill="#F9191B" transform="translate(227,619)"/>
<path d="M0 0 C0.33 0.66 0.66 1.32 1 2 C1.66 2 2.32 2 3 2 C3.18062988 2.63276855 3.36125977 3.26553711 3.54736328 3.91748047 C6.62891579 14.68052773 9.71460801 25.4381121 13.25 36.0625 C13.48348145 36.76810059 13.71696289 37.47370117 13.95751953 38.20068359 C15.05908514 41.46128629 16.25093505 44.61054183 17.671875 47.74609375 C19 51 19 51 19 55 C20.485 55.495 20.485 55.495 22 56 C23.71875 58.3984375 23.71875 58.3984375 25.5 61.375 C27.4557984 64.62608594 29.22683038 67.4131993 32 70 C32.92471521 71.097435 33.8411125 72.20192118 34.75 73.3125 C40.56214649 80.10758303 47.64095224 84.99525525 55 90 C54.67 90.66 54.34 91.32 54 92 C40.4446796 87.18618481 29.58808867 73.82551081 21.6875 62.25 C21.20812988 61.5605127 20.72875977 60.87102539 20.23486328 60.16064453 C12.7747923 48.8168952 9.0054906 35.49419028 5.27490234 22.56176758 C4.61364989 20.27321805 3.93841327 17.98910404 3.26171875 15.70507812 C2.83251848 14.23721718 2.40410231 12.76912669 1.9765625 11.30078125 C1.77664703 10.62477371 1.57673157 9.94876617 1.37075806 9.25227356 C0.43492737 5.98181708 0 3.44366147 0 0 Z " fill="#F9111D" transform="translate(266,762)"/>
<path d="M0 0 C-2.27597297 3.41395945 -2.78597581 3.51236887 -6.56860352 4.48291016 C-7.52412613 4.73421692 -8.47964874 4.98552368 -9.46412659 5.2444458 C-10.50850388 5.50666931 -11.55288116 5.76889282 -12.62890625 6.0390625 C-14.25716591 6.46285187 -14.25716591 6.46285187 -15.9183197 6.89520264 C-19.46373056 7.81574478 -23.01298653 8.7204193 -26.5625 9.625 C-30.1988974 10.56410929 -33.8343166 11.50694049 -37.46969604 12.44998169 C-39.8888788 13.07721792 -42.30841504 13.70309234 -44.728302 14.3276062 C-51.72928396 16.13708062 -58.71552302 17.98952912 -65.68359375 19.921875 C-66.84635582 20.2439241 -66.84635582 20.2439241 -68.03260803 20.57247925 C-70.87094341 21.36058149 -73.70851253 22.15109695 -76.54299927 22.95294189 C-78.41262796 23.48161289 -80.2843842 24.00274288 -82.15625 24.5234375 C-83.17525391 24.81138184 -84.19425781 25.09932617 -85.24414062 25.39599609 C-87.92662897 25.98391921 -90.26457613 26.1182514 -93 26 C-92.38125 25.71125 -91.7625 25.4225 -91.125 25.125 C-88.86674235 24.06279958 -88.86674235 24.06279958 -87 22 C-83.96589848 20.87430096 -80.8172365 20.12925651 -77.6875 19.3125 C-76.83220703 19.07466797 -75.97691406 18.83683594 -75.09570312 18.59179688 C-67.30735498 16.53461119 -67.30735498 16.53461119 -63 18 C-63 17.34 -63 16.68 -63 16 C-38.49285585 8.77786732 -38.49285585 8.77786732 -27.73828125 5.9765625 C-24.83426401 5.21793731 -21.93801957 4.44004866 -19.04296875 3.6484375 C-17.32032065 3.18226155 -15.59766448 2.71611542 -13.875 2.25 C-13.06828857 2.02683105 -12.26157715 1.80366211 -11.43041992 1.57373047 C-7.5311793 0.52762285 -4.07850845 -0.29483194 0 0 Z " fill="#F91E14" transform="translate(577,817)"/>
<path d="M0 0 C-17.54802163 7.10599949 -17.54802163 7.10599949 -24.625 6.9375 C-27.46423155 7.01221662 -29.44752737 8.0662522 -32.01171875 9.20043945 C-35.31450733 10.52861143 -38.72818045 11.31295316 -42.1875 12.125 C-42.88552734 12.29386719 -43.58355469 12.46273437 -44.30273438 12.63671875 C-46.20079238 13.09543115 -48.1003348 13.54798963 -50 14 C-51.13888672 14.30550781 -51.13888672 14.30550781 -52.30078125 14.6171875 C-54 15 -54 15 -57 15 C-62.02926863 15.31098227 -62.02926863 15.31098227 -66 18 C-68.20703125 18.4140625 -68.20703125 18.4140625 -70.8125 18.625 C-71.66457031 18.69976562 -72.51664062 18.77453125 -73.39453125 18.8515625 C-75.93641952 18.99637772 -78.45463207 19.02741869 -81 19 C-77.40129121 16.94473742 -73.60203466 16.0225171 -69.609375 15.0546875 C-68.90476135 14.87994904 -68.20014771 14.70521057 -67.47418213 14.525177 C-65.23385802 13.9706724 -62.99198362 13.4227519 -60.75 12.875 C-59.22645537 12.49913189 -57.70301656 12.12283456 -56.1796875 11.74609375 C-52.45433249 10.82575272 -48.72757371 9.91131134 -45 9 C-45 8.34 -45 7.68 -45 7 C-43.84209961 7.03681885 -42.68419922 7.0736377 -41.49121094 7.11157227 C-37.20362335 7.10786369 -33.27003686 6.31598912 -29.140625 5.21484375 C-28.42896179 5.03490372 -27.71729858 4.85496368 -26.98406982 4.66957092 C-24.73697746 4.10116351 -22.49324373 3.52089798 -20.25 2.9375 C-17.27866023 2.16502773 -14.30454787 1.40496128 -11.328125 0.65234375 C-10.65203186 0.47219223 -9.97593872 0.29204071 -9.27935791 0.10643005 C-5.87851954 -0.75236124 -3.32943112 -1.30256876 0 0 Z " fill="#FC6009" transform="translate(541,177)"/>
<path d="M0 0 C0.99 0 1.98 0 3 0 C3.24645264 0.93569824 3.49290527 1.87139648 3.74682617 2.83544922 C4.68402605 6.39246319 5.62304846 9.94899442 6.56231689 13.50546265 C7.18521764 15.8663495 7.80626651 18.22771853 8.42724609 20.58911133 C10.9920932 30.33040851 10.9920932 30.33040851 13.74609375 40.01953125 C13.98497314 40.83373535 14.22385254 41.64793945 14.4699707 42.48681641 C14.88992471 43.89772414 15.32108069 45.30537435 15.76635742 46.70849609 C17.0740474 51.11280054 16.90906872 54.51794598 16 59 C14.40596244 56.03724231 13.38206109 53.1679677 12.48779297 49.92773438 C12.2076535 48.91988892 11.92751404 47.91204346 11.6388855 46.87365723 C11.19501999 45.25010315 11.19501999 45.25010315 10.7421875 43.59375 C10.43427277 42.47689819 10.12635803 41.36004639 9.80911255 40.20935059 C9.15987014 37.84961562 8.51277681 35.48928846 7.86767578 33.12841797 C6.878301 29.51206578 5.87904486 25.89854439 4.87890625 22.28515625 C4.24940027 19.99235208 3.62047438 17.69938854 2.9921875 15.40625 C2.6922287 14.32388062 2.3922699 13.24151123 2.08322144 12.12634277 C1.80938629 11.11849731 1.53555115 10.11065186 1.25341797 9.07226562 C1.01074188 8.18720337 0.7680658 7.30214111 0.51803589 6.39025879 C0 4 0 4 0 0 Z " fill="#F92116" transform="translate(211,560)"/>
<path d="M0 0 C0.69649658 0.12213867 1.39299316 0.24427734 2.1105957 0.37011719 C3.79741529 0.69633873 5.46462103 1.12099974 7.125 1.5625 C7.62 2.5525 7.62 2.5525 8.125 3.5625 C8.455 2.9025 8.785 2.2425 9.125 1.5625 C10.115 1.5625 11.105 1.5625 12.125 1.5625 C12.125 2.2225 12.125 2.8825 12.125 3.5625 C13.11242187 3.98402344 14.09984375 4.40554687 15.1171875 4.83984375 C16.41147198 5.39319726 17.70574206 5.94658442 19 6.5 C19.65097656 6.77779297 20.30195312 7.05558594 20.97265625 7.34179688 C25.48401275 9.27191332 29.24111439 11.29822169 33.25 14.125 C34.61511719 15.08599609 34.61511719 15.08599609 36.0078125 16.06640625 C36.70648437 16.56011719 37.40515625 17.05382812 38.125 17.5625 C34.44043643 17.5625 32.14121787 17.34924932 29.1875 15.0625 C27.19026723 13.38796516 27.19026723 13.38796516 24.5625 13.0625 C21.70956866 12.47728331 21.1266235 11.5641235 19.125 9.5625 C17.46011078 9.22039948 15.79312526 8.88845551 14.125 8.5625 C11.59078597 7.61216974 9.11563732 6.55852086 6.625 5.5 C4.13165785 4.56499669 1.74536533 4.01170549 -0.875 3.5625 C-0.875 2.9025 -0.875 2.2425 -0.875 1.5625 C-2.174375 1.871875 -2.174375 1.871875 -3.5 2.1875 C-6.875 2.5625 -6.875 2.5625 -9.3125 1.625 C-14.57432744 0.05568304 -19.78574419 0.0919666 -25.25 -0.0625 C-26.92642578 -0.12050781 -26.92642578 -0.12050781 -28.63671875 -0.1796875 C-31.38265161 -0.27356555 -34.12858476 -0.35924911 -36.875 -0.4375 C-36.875 -0.7675 -36.875 -1.0975 -36.875 -1.4375 C-24.3575032 -2.80956963 -12.3742431 -2.21677988 0 0 Z " fill="#FA6809" transform="translate(683.875,150.4375)"/>
<path d="M0 0 C0 0.66 0 1.32 0 2 C-7.95225832 5.04218604 -15.97012236 7.53011711 -24.1875 9.75 C-25.87262695 10.22373047 -25.87262695 10.22373047 -27.59179688 10.70703125 C-33.57852443 12.33114642 -38.79575756 13.39392016 -45 13 C-44.67 12.34 -44.34 11.68 -44 11 C-41.49618341 10.20455819 -39.03999568 9.52820053 -36.4921875 8.90625 C-35.73334259 8.71405884 -34.97449768 8.52186768 -34.19265747 8.32385254 C-31.75529856 7.70820792 -29.31530934 7.10383245 -26.875 6.5 C-24.45677176 5.89375491 -22.03912668 5.28523327 -19.62161255 4.67614746 C-18.11620015 4.29773714 -16.61026495 3.92139848 -15.10372925 3.54748535 C-11.75130876 2.71256519 -8.42085924 1.84330025 -5.10595703 0.86914062 C-2 0 -2 0 0 0 Z " fill="#FB270D" transform="translate(624,804)"/>
<path d="M0 0 C-1.45505358 0.52992692 -2.91418127 1.0486789 -4.375 1.5625 C-5.18710937 1.85253906 -5.99921875 2.14257812 -6.8359375 2.44140625 C-9 3 -9 3 -11 2 C-11 2.66 -11 3.32 -11 4 C-11.55816406 4.13277344 -12.11632812 4.26554688 -12.69140625 4.40234375 C-15.99260798 5.25696958 -19.22053644 6.33089972 -22.46484375 7.37890625 C-25.07358237 8.01802711 -27.32533774 8.11004872 -30 8 C-30.33 8.66 -30.66 9.32 -31 10 C-32.98 9.34 -34.96 8.68 -37 8 C-37 7.67 -37 7.34 -37 7 C-34.03 6.34 -31.06 5.68 -28 5 C-28 4.34 -28 3.68 -28 3 C-26.85015625 3.04253906 -25.7003125 3.08507812 -24.515625 3.12890625 C-20.00344957 3.12990012 -16.0626654 2.17964602 -11.75 0.9375 C-3.49628835 -1.43275734 -3.49628835 -1.43275734 0 0 Z " fill="#FB5F08" transform="translate(459,197)"/>
<path d="M0 0 C-8.47282844 3.67059177 -16.49863165 5.9192866 -25.56640625 7.421875 C-28.83722896 7.89475686 -28.83722896 7.89475686 -31.27734375 8.703125 C-33 9 -33 9 -36 7 C-31.51899163 5.83026345 -27.0350161 4.67299455 -22.54785156 3.52709961 C-21.02223481 3.13564567 -19.49748029 2.74081504 -17.97363281 2.3425293 C-15.78148533 1.77019875 -13.58651088 1.21013442 -11.390625 0.65234375 C-10.7113092 0.47219223 -10.03199341 0.29204071 -9.33209229 0.10643005 C-5.91777166 -0.74795555 -3.34089574 -1.31037355 0 0 Z " fill="#FC6108" transform="translate(646,151)"/>
<path d="M0 0 C-4.72210376 3.41945445 -10.30496032 5.01546259 -16 6 C-17.33449674 5.67135528 -18.66796108 5.33846891 -20 5 C-22.00032273 5.55559753 -22.00032273 5.55559753 -23.9375 6.5 C-27.34309187 7.90679589 -29.40640801 8.23529725 -33 7 C-27.85587827 4.1702743 -22.16680186 3.17317276 -16.5 1.8125 C-15.35917969 1.52697266 -14.21835937 1.24144531 -13.04296875 0.94726562 C-11.94597656 0.68236328 -10.84898437 0.41746094 -9.71875 0.14453125 C-8.21731445 -0.22128052 -8.21731445 -0.22128052 -6.68554688 -0.59448242 C-4.04581646 -0.99308171 -2.49388144 -0.86774323 0 0 Z " fill="#FD5607" transform="translate(410,209)"/>
<path d="M0 0 C3.42022725 3.42022725 3.94963851 8.29054355 5.1875 12.875 C5.47302734 13.88175781 5.75855469 14.88851563 6.05273438 15.92578125 C6.31763672 16.89644531 6.58253906 17.86710937 6.85546875 18.8671875 C7.09934326 19.75519043 7.34321777 20.64319336 7.59448242 21.55810547 C8.01421093 24.08557361 7.81767984 25.59760704 7 28 C5 27 5 27 4.31396484 25.26928711 C3.65725217 22.82775168 3.00500455 20.38609328 2.375 17.9375 C2.14554688 17.10283203 1.91609375 16.26816406 1.6796875 15.40820312 C0.29336214 10.11458576 -0.24024674 5.46877436 0 0 Z " fill="#FB3110" transform="translate(179,437)"/>
<path d="M0 0 C3.09294404 2.66600391 4.69479887 5.87496829 6.625 9.4375 C10.51918264 16.45653122 15.05013868 22.6736579 20 29 C21.19141066 30.58039278 22.3794585 32.16333258 23.5625 33.75 C24.27599609 34.70132813 24.27599609 34.70132813 25.00390625 35.671875 C25.33261719 36.11015625 25.66132813 36.5484375 26 37 C25.01 37 24.02 37 23 37 C16.54787692 30.18058338 11.48249463 21.8790566 6.4375 14 C5.65064819 12.78123169 5.65064819 12.78123169 4.84790039 11.5378418 C4.3605542 10.762229 3.87320801 9.98661621 3.37109375 9.1875 C2.93724365 8.50042969 2.50339355 7.81335938 2.05639648 7.10546875 C0.87486414 4.75059588 0.40756983 2.59306054 0 0 Z " fill="#FD120A" transform="translate(372,610)"/>
<path d="M0 0 C0 3 0 3 -1.3125 4.375 C-1.869375 4.91125 -2.42625 5.4475 -3 6 C-3.45375 6.78375 -3.9075 7.5675 -4.375 8.375 C-7.37134567 13.2152507 -11.09561945 16.23342636 -16 19 C-17.34631825 19.98244845 -18.68441297 20.97676564 -20 22 C-18.6068597 18.74698204 -17.05039845 16.96613784 -14.3125 14.75 C-10.68639786 11.69088838 -7.59541309 8.42210581 -4.54296875 4.796875 C-3.09717227 3.11316264 -1.58992015 1.54694933 0 0 Z " fill="#FE200C" transform="translate(659,648)"/>
<path d="M0 0 C2.30582593 4.32510738 3.40007615 8.77834587 4.625 13.5 C4.85445312 14.35464844 5.08390625 15.20929688 5.3203125 16.08984375 C5.536875 16.91613281 5.7534375 17.74242187 5.9765625 18.59375 C6.17330566 19.34333984 6.37004883 20.09292969 6.57275391 20.86523438 C7 23 7 23 7 27 C6.34 27 5.68 27 5 27 C4.4254048 23.26513121 4 19.78706732 4 16 C3.34 16 2.68 16 2 16 C1.491217 14.44033782 0.99336531 12.87710759 0.5 11.3125 C0.2215625 10.44238281 -0.056875 9.57226562 -0.34375 8.67578125 C-1.00286159 5.98833219 -1.1929629 3.75454538 -1 1 C-0.67 0.67 -0.34 0.34 0 0 Z " fill="#FB5E0A" transform="translate(772,258)"/>
<path d="M0 0 C-1 2 -1 2 -3.44140625 2.8515625 C-9.461127 4.34330807 -14.79826201 5.35779258 -21 5 C-20.67 4.34 -20.34 3.68 -20 3 C-17.39058324 2.16557634 -14.84378268 1.45623605 -12.1875 0.8125 C-11.46240234 0.62236328 -10.73730469 0.43222656 -9.99023438 0.23632812 C-6.26889211 -0.68634685 -3.65745832 -1.13150237 0 0 Z " fill="#FB2A0A" transform="translate(656,797)"/>
<path d="M0 0 C0 0.66 0 1.32 0 2 C-0.78246094 2.04898438 -1.56492187 2.09796875 -2.37109375 2.1484375 C-3.38300781 2.22320312 -4.39492188 2.29796875 -5.4375 2.375 C-6.44683594 2.44460937 -7.45617187 2.51421875 -8.49609375 2.5859375 C-9.32238281 2.72257813 -10.14867187 2.85921875 -11 3 C-11.33 3.66 -11.66 4.32 -12 5 C-12.99 4.67 -13.98 4.34 -15 4 C-16.2065625 4.5259375 -16.2065625 4.5259375 -17.4375 5.0625 C-20 6 -20 6 -22.16015625 5.05859375 C-22.76730469 4.70925781 -23.37445312 4.35992187 -24 4 C-20.75393904 3.1303597 -17.50267592 2.28203087 -14.25 1.4375 C-13.32960938 1.19064453 -12.40921875 0.94378906 -11.4609375 0.68945312 C-10.57148437 0.46064453 -9.68203125 0.23183594 -8.765625 -0.00390625 C-7.94868164 -0.21861572 -7.13173828 -0.4333252 -6.29003906 -0.65454102 C-3.85854591 -1.02133876 -2.31574702 -0.76494053 0 0 Z " fill="#FC6409" transform="translate(565,171)"/>
<path d="M0 0 C0.33 0.66 0.66 1.32 1 2 C0.34 2 -0.32 2 -1 2 C-1.33 2.99 -1.66 3.98 -2 5 C-4.0390625 6.0625 -4.0390625 6.0625 -6.625 7 C-9.79211195 8.17350786 -12.87978977 9.37858449 -15.9375 10.8125 C-19 12 -19 12 -22 11 C-14.66666667 7.33333333 -7.33333333 3.66666667 0 0 Z " fill="#FE1C0D" transform="translate(616,684)"/>
<path d="M0 0 C2.53849129 3.80773693 3.47302797 7.56055664 4.6875 11.9375 C5.04424805 13.15469727 5.04424805 13.15469727 5.40820312 14.39648438 C5.62798828 15.18216797 5.84777344 15.96785156 6.07421875 16.77734375 C6.27619873 17.49140381 6.47817871 18.20546387 6.6862793 18.94116211 C7.03828103 21.25122486 6.70940527 22.79230597 6 25 C4.68373308 21.38026598 4 18.90432869 4 15 C3.34 15 2.68 15 2 15 C1.87625 13.906875 1.7525 12.81375 1.625 11.6875 C1.24535199 7.92618198 1.24535199 7.92618198 -1 5 C-0.625 2.3125 -0.625 2.3125 0 0 Z " fill="#FB610A" transform="translate(762,221)"/>
<path d="M0 0 C2.97 0 5.94 0 9 0 C5.79806797 3.20193203 4.4506467 3.69896006 0.1875 4.75 C-0.82957031 5.01296875 -1.84664063 5.2759375 -2.89453125 5.546875 C-6.21051778 6.03071706 -8.74478039 5.72013827 -12 5 C-8.17482487 2.60926555 -4.40334476 2.44033448 0 2 C0 1.34 0 0.68 0 0 Z " fill="#FC5607" transform="translate(368,216)"/>
<path d="M0 0 C-0.33 0.99 -0.66 1.98 -1 3 C-7.12672991 5.61651207 -13.40889326 6.37308151 -20 6 C-19.67 5.34 -19.34 4.68 -19 4 C-16.19921875 3.18359375 -16.19921875 3.18359375 -12.6875 2.4375 C-10.96080078 2.06431641 -10.96080078 2.06431641 -9.19921875 1.68359375 C-8.14347656 1.45800781 -7.08773437 1.23242188 -6 1 C-5.24332031 0.80535156 -4.48664062 0.61070312 -3.70703125 0.41015625 C-2 0 -2 0 0 0 Z " fill="#FB2E0A" transform="translate(678,790)"/>
<path d="M0 0 C2.06434456 3.65230191 3.11226102 7.53714686 4.1875 11.5625 C4.37763672 12.23474609 4.56777344 12.90699219 4.76367188 13.59960938 C5.66202035 16.93775296 6.11647374 18.65057878 5 22 C4.34 21.67 3.68 21.34 3 21 C3 18.36 3 15.72 3 13 C2.34 13 1.68 13 1 13 C1 11.68 1 10.36 1 9 C0.34 8.67 -0.32 8.34 -1 8 C-0.67 5.36 -0.34 2.72 0 0 Z " fill="#FA5D0B" transform="translate(794,343)"/>
<path d="M0 0 C0.66 0.33 1.32 0.66 2 1 C0.5484451 2.67257355 -0.91144409 4.33791758 -2.375 6 C-3.18710938 6.928125 -3.99921875 7.85625 -4.8359375 8.8125 C-5.55007812 9.534375 -6.26421875 10.25625 -7 11 C-7.66 11 -8.32 11 -9 11 C-9 11.66 -9 12.32 -9 13 C-9.66 13 -10.32 13 -11 13 C-11 13.66 -11 14.32 -11 15 C-11.99 14.67 -12.98 14.34 -14 14 C-12.625 12 -12.625 12 -11 10 C-10.34 10 -9.68 10 -9 10 C-9 9.34 -9 8.68 -9 8 C-8.34 8 -7.68 8 -7 8 C-7 7.34 -7 6.68 -7 6 C-5.46875 4.4921875 -5.46875 4.4921875 -3.5 2.875 C-2.8503125 2.33617187 -2.200625 1.79734375 -1.53125 1.2421875 C-0.77328125 0.62730469 -0.77328125 0.62730469 0 0 Z " fill="#FA4A09" transform="translate(195,268)"/>
<path d="M0 0 C-3.06192354 2.62244746 -5.47907316 3.56921647 -9.4375 4.25 C-10.36433594 4.42015625 -11.29117188 4.5903125 -12.24609375 4.765625 C-15.07179048 5.00610983 -17.26407151 4.69515425 -20 4 C-20 3.67 -20 3.34 -20 3 C-17.23132003 2.30259196 -14.46063138 1.61677147 -11.6875 0.9375 C-10.90181641 0.73833984 -10.11613281 0.53917969 -9.30664062 0.33398438 C-8.54931641 0.15029297 -7.79199219 -0.03339844 -7.01171875 -0.22265625 C-6.31522217 -0.39547119 -5.61872559 -0.56828613 -4.90112305 -0.74633789 C-3 -1 -3 -1 0 0 Z " fill="#FC6209" transform="translate(609,160)"/>
<path d="M0 0 C-1.3303125 0.433125 -1.3303125 0.433125 -2.6875 0.875 C-4.66617747 1.54700367 -6.63217658 2.26212199 -8.5625 3.0625 C-11.03912447 4.01504787 -13.3956849 4.52025775 -16 5 C-16.99 5.33 -17.98 5.66 -19 6 C-21.6875 5.5625 -21.6875 5.5625 -24 5 C-20.0788266 2.68912181 -15.82299799 1.83763328 -11.4375 0.8125 C-10.66986328 0.62236328 -9.90222656 0.43222656 -9.11132812 0.23632812 C-3.36444117 -1.12148039 -3.36444117 -1.12148039 0 0 Z " fill="#FA5F0B" transform="translate(355,222)"/>
<path d="M0 0 C0.99 0.33 1.98 0.66 3 1 C3.984375 3.36328125 3.984375 3.36328125 4.75 6.3125 C5.01296875 7.27800781 5.2759375 8.24351562 5.546875 9.23828125 C5.98967528 11.9370726 5.89543883 13.45283955 5 16 C5 15.34 5 14.68 5 14 C4.34 14 3.68 14 3 14 C2.49528803 12.23050388 1.99639315 10.45934777 1.5 8.6875 C1.2215625 7.70136719 0.943125 6.71523438 0.65625 5.69921875 C0 3 0 3 0 0 Z " fill="#FB490B" transform="translate(852,573)"/>
<path d="M0 0 C2 3 2 3 2 6 C2.99 6.33 3.98 6.66 5 7 C5.76173392 11.3164922 6.16063604 14.74433453 5 19 C4.87625 18.360625 4.7525 17.72125 4.625 17.0625 C4.41875 16.381875 4.2125 15.70125 4 15 C3.34 14.67 2.68 14.34 2 14 C1.3671875 11.85546875 1.3671875 11.85546875 0.875 9.1875 C0.70742187 8.31480469 0.53984375 7.44210937 0.3671875 6.54296875 C0 4 0 4 0 0 Z " fill="#F92D19" transform="translate(206,541)"/>
<path d="M0 0 C0.33 0.66 0.66 1.32 1 2 C0.10333658 4.24310013 -0.89146683 6.44754321 -1.9375 8.625 C-2.50339844 9.81351562 -3.06929687 11.00203125 -3.65234375 12.2265625 C-4.09707031 13.14179688 -4.54179687 14.05703125 -5 15 C-5.99 15 -6.98 15 -8 15 C-6.51194289 9.19657726 -3.40902445 4.82409121 0 0 Z " fill="#FB480A" transform="translate(174,291)"/>
<path d="M0 0 C-2.96893676 1.97929118 -5.51620619 3.02741785 -8.875 4.1875 C-9.90367187 4.55230469 -10.93234375 4.91710937 -11.9921875 5.29296875 C-15.12303729 6.02892175 -16.94393738 5.88524323 -20 5 C-16.93138727 3.33933899 -13.92435277 2.29822725 -10.5625 1.375 C-9.63566406 1.11460937 -8.70882813 0.85421875 -7.75390625 0.5859375 C-5.07608341 0.01618796 -2.72741575 -0.10889863 0 0 Z " fill="#FA620A" transform="translate(397,211)"/>
<path d="M0 0 C-1 2 -1 2 -3.125 3.125 C-6.52391089 4.15945114 -9.46640886 4.1385722 -13 4 C-12 2 -12 2 -10.0390625 1.11328125 C-9.24242187 0.84902344 -8.44578125 0.58476563 -7.625 0.3125 C-6.83351563 0.04050781 -6.04203125 -0.23148438 -5.2265625 -0.51171875 C-3 -1 -3 -1 0 0 Z " fill="#FB3007" transform="translate(807,757)"/>
<path d="M0 0 C0.66 0 1.32 0 2 0 C2.53251766 1.91345327 3.05059483 3.8309295 3.5625 5.75 C3.85253906 6.81734375 4.14257812 7.8846875 4.44140625 8.984375 C4.97098494 11.84335927 4.98370862 13.31597383 4 16 C3.67 14.35 3.34 12.7 3 11 C2.34 11 1.68 11 1 11 C0.67 7.37 0.34 3.74 0 0 Z " fill="#FD1A0F" transform="translate(215,571)"/>
<path d="M0 0 C0.99 0 1.98 0 3 0 C3.22786458 1.98567708 3.45572917 3.97135417 3.68359375 5.95703125 C3.97170735 8.19396393 3.97170735 8.19396393 5 11 C4.0625 13.1875 4.0625 13.1875 3 15 C2.49363393 13.25183142 1.99515381 11.50137737 1.5 9.75 C1.2215625 8.77546875 0.943125 7.8009375 0.65625 6.796875 C0 4 0 4 0 0 Z " fill="#F93118" transform="translate(198,512)"/>
<path d="M0 0 C3.98175544 2.10148204 6.35039045 4.36905358 9 8 C8.01 8.33 7.02 8.66 6 9 C3.69 6.69 1.38 4.38 -1 2 C-0.67 1.34 -0.34 0.68 0 0 Z " fill="#FB6007" transform="translate(729,174)"/>
<path d="M0 0 C2 1.375 2 1.375 4 4 C4.35791096 7.3580469 4.23115823 10.63536357 4 14 C3.525625 13.505 3.05125 13.01 2.5625 12.5 C1.24076302 10.88457803 1.24076302 10.88457803 0 11 C0 7.37 0 3.74 0 0 Z " fill="#F84310" transform="translate(160,371)"/>
<path d="M0 0 C-6.68864908 2.36332268 -12.82547081 4.21101556 -20 4 C-16.76393248 2.21860706 -13.57342755 1.22819081 -10 0.3125 C-8.96875 0.04050781 -7.9375 -0.23148438 -6.875 -0.51171875 C-4.11053448 -0.98122716 -2.60249272 -0.93214283 0 0 Z " fill="#F95D0C" transform="translate(294,237)"/>
<path d="M0 0 C2.6444211 2.21790157 3.88097442 3.56967674 4.8125 6.9375 C4.99248942 9.87732724 4.75033374 12.16540585 4 15 C2.1866078 11.79989612 1.47786026 8.86716157 0.875 5.25 C0.70742187 4.26515625 0.53984375 3.2803125 0.3671875 2.265625 C0.24601563 1.51796875 0.12484375 0.7703125 0 0 Z " fill="#F7291D" transform="translate(217,582)"/>
<path d="M0 0 C3.48749314 2.78999451 6.50157221 5.25235831 9 9 C8.67 9.66 8.34 10.32 8 11 C3.48709197 7.66437233 1.31793186 5.66710699 0 0 Z " fill="#FB6309" transform="translate(738,182)"/>
<path d="M0 0 C1.72357119 2.58535679 2.44735018 4.03811614 3.1875 6.9375 C3.36667969 7.60652344 3.54585937 8.27554687 3.73046875 8.96484375 C4.03268678 11.24680888 3.68756692 12.82026659 3 15 C3 14.01 3 13.02 3 12 C2.34 12 1.68 12 1 12 C0.45533613 7.915021 0 4.1274515 0 0 Z " fill="#FA5A0C" transform="translate(814,422)"/>
<path d="M0 0 C2 1 2 1 3.1875 4.3125 C3.90649268 7.57562063 4.20286847 8.99282882 3 12 C0.01485372 7.89542386 -0.2954439 5.02254631 0 0 Z " fill="#FD1D0C" transform="translate(202,523)"/>
<path d="M0 0 C2.18742014 3.2811302 2.54442806 5.33084356 3.125 9.1875 C3.37636719 10.81751953 3.37636719 10.81751953 3.6328125 12.48046875 C3.75398437 13.31191406 3.87515625 14.14335937 4 15 C1.49464087 12.65122581 0.09435091 10.9088213 -0.265625 7.44140625 C-0.25149142 4.95036325 -0.17369194 2.48475972 0 0 Z " fill="#FA5D0C" transform="translate(810,406)"/>
<path d="M0 0 C-1.90401138 1.90401138 -3.33425686 2.93520439 -6.046875 3.19921875 C-8.03233273 3.1886578 -10.0169914 3.09915043 -12 3 C-9.84267191 0.84267191 -8.88177557 0.51705175 -6 -0.1875 C-5.29875 -0.36667969 -4.5975 -0.54585937 -3.875 -0.73046875 C-2 -1 -2 -1 0 0 Z " fill="#FD2B07" transform="translate(724,779)"/>
<path d="M0 0 C2.56616632 3.84924948 2.55097676 6.4349304 3 11 C2.01 11.495 2.01 11.495 1 12 C-0.47075246 7.58774263 -1.36884358 4.51718381 0 0 Z " fill="#FA5E0B" transform="translate(789,324)"/>
<path d="M0 0 C0.99 0.495 0.99 0.495 2 1 C2.4140625 3.28515625 2.4140625 3.28515625 2.625 6.0625 C2.69976562 6.98160156 2.77453125 7.90070312 2.8515625 8.84765625 C2.92503906 9.91306641 2.92503906 9.91306641 3 11 C2.67 10.01 2.34 9.02 2 8 C1.34 8 0.68 8 0 8 C0 5.36 0 2.72 0 0 Z " fill="#FC0E17" transform="translate(259,732)"/>
<path d="M0 0 C-0.598125 0.28875 -1.19625 0.5775 -1.8125 0.875 C-4.19327792 2.04742026 -4.19327792 2.04742026 -7 4 C-10.1875 3.625 -10.1875 3.625 -13 3 C-8.48166204 0.66292864 -5.11018582 -0.11355968 0 0 Z " fill="#F8590B" transform="translate(262,244)"/>
<path d="M0 0 C-3.44833324 2.05257931 -5.31661591 3.0632763 -9.375 2.6875 C-10.24125 2.460625 -11.1075 2.23375 -12 2 C-7.72170329 -0.29194467 -4.74957752 -1.52664992 0 0 Z " fill="#FA590C" transform="translate(274,242)"/>
<path d="M0 0 C-3.44833324 2.05257931 -5.31661591 3.0632763 -9.375 2.6875 C-10.24125 2.460625 -11.1075 2.23375 -12 2 C-7.72170329 -0.29194467 -4.74957752 -1.52664992 0 0 Z " fill="#FA610B" transform="translate(368,219)"/>
<path d="M0 0 C3.00617269 3.00617269 2.59585316 5.82381598 3 10 C2.67 9.34 2.34 8.68 2 8 C1.34 8 0.68 8 0 8 C0 5.36 0 2.72 0 0 Z " fill="#FC280C" transform="translate(187,467)"/>
<path d="M0 0 C3.00617269 3.00617269 2.59585316 5.82381598 3 10 C2.67 9.34 2.34 8.68 2 8 C1.34 8 0.68 8 0 8 C0 5.36 0 2.72 0 0 Z " fill="#FD280A" transform="translate(179,437)"/>
<path d="M0 0 C2.29633824 3.44450737 2.54016485 5.93812283 3 10 C2.67 9.34 2.34 8.68 2 8 C1.34 8 0.68 8 0 8 C-0.79953138 4.71303767 -1.09658936 3.28976808 0 0 Z " fill="#FA590D" transform="translate(820,445)"/>
<path d="M0 0 C2.46278801 1.231394 3.42497687 2.78064923 5 5 C1 5 1 5 -1 4 C-0.67 2.68 -0.34 1.36 0 0 Z " fill="#F96007" transform="translate(723,168)"/>
<path d="M0 0 C0.99 0.33 1.98 0.66 3 1 C3.625 3.3125 3.625 3.3125 4 6 C3.01 7.485 3.01 7.485 2 9 C1.34 6.03 0.68 3.06 0 0 Z " fill="#F51520" transform="translate(276,797)"/>
<path d="M0 0 C2.0625 1.5625 2.0625 1.5625 4 4 C3.75 7.75 3.75 7.75 3 11 C0.87953208 7.46588679 0.46800711 4.05606165 0 0 Z " fill="#F52A1F" transform="translate(224,608)"/>
<path d="M0 0 C0.33 0.99 0.66 1.98 1 3 C-0.65 4.65 -2.3 6.3 -4 8 C-4 4.09161134 -2.49432124 2.88405893 0 0 Z " fill="#FA4B0B" transform="translate(180,283)"/>
<path d="M0 0 C2.97 0 5.94 0 9 0 C9 0.99 9 1.98 9 3 C4.545 2.01 4.545 2.01 0 1 C0 0.67 0 0.34 0 0 Z " fill="#FD6205" transform="translate(671,150)"/>
<path d="M0 0 C1.65 0 3.3 0 5 0 C3.02 0.99 3.02 0.99 1 2 C0.67 1.34 0.34 0.68 0 0 Z " fill="#F66608" transform="translate(527,176)"/>
<path d="M0 0 C4 1 4 1 4 1 Z " fill="#EB3A0E" transform="translate(748,775)"/>
<path d="M0 0 C1 4 1 4 1 4 Z " fill="#F43214" transform="translate(192,497)"/>
<path d="M0 0 C1 4 1 4 1 4 Z " fill="#F53B0F" transform="translate(168,408)"/>
<path d="M0 0 C4 1 4 1 4 1 Z " fill="#F46408" transform="translate(464,192)"/>
<path d="M0 0 C4 1 4 1 4 1 Z " fill="#F76808" transform="translate(592,160)"/>
<path d="M0 0 C4 1 4 1 4 1 Z " fill="#F56609" transform="translate(624,152)"/>
<path d="" fill="#F3231A" transform="translate(0,0)"/>
<path d="" fill="#F22717" transform="translate(0,0)"/>
<path d="" fill="#F62A13" transform="translate(0,0)"/>
<path d="" fill="#F62C14" transform="translate(0,0)"/>
<path d="" fill="#F15509" transform="translate(0,0)"/>
<path d="" fill="#F53311" transform="translate(0,0)"/>
<path d="" fill="#F45C09" transform="translate(0,0)"/>
<path d="" fill="#F35F07" transform="translate(0,0)"/>
<path d="M0 0 C3 1 3 1 3 1 Z " fill="#EF5409" transform="translate(233,248)"/>
<path d="M0 0 C0.33 0.66 0.66 1.32 1 2 C0.34 1.67 -0.32 1.34 -1 1 C-0.67 0.67 -0.34 0.34 0 0 Z " fill="#F05607" transform="translate(259,241)"/>
<path d="M0 0 C3 1 3 1 3 1 Z " fill="#F15606" transform="translate(264,240)"/>
<path d="M0 0 C2 1 2 1 2 1 Z " fill="#E61C23" transform="translate(354,870)"/>
<path d="M0 0 C2 1 2 1 2 1 Z " fill="#E92D17" transform="translate(566,823)"/>
<path d="M0 0 C2 1 2 1 2 1 Z " fill="#F1330E" transform="translate(664,797)"/>
<path d="" fill="#EB1C20" transform="translate(0,0)"/>
<path d="" fill="#ED1F23" transform="translate(0,0)"/>
<path d="" fill="#EF1D1D" transform="translate(0,0)"/>
<path d="" fill="#F21F1D" transform="translate(0,0)"/>
<path d="" fill="#F12913" transform="translate(0,0)"/>
<path d="" fill="#F25009" transform="translate(0,0)"/>
<path d="" fill="#F32D16" transform="translate(0,0)"/>
<path d="" fill="#F25909" transform="translate(0,0)"/>
<path d="" fill="#F73A0D" transform="translate(0,0)"/>
<path d="" fill="#F6390E" transform="translate(0,0)"/>
<path d="" fill="#F2430E" transform="translate(0,0)"/>
<path d="" fill="#F35B07" transform="translate(0,0)"/>
<path d="" fill="#F0490E" transform="translate(0,0)"/>
<path d="M0 0 C2 1 2 1 2 1 Z " fill="#F0540A" transform="translate(225,250)"/>
<path d="M0 0 C2 1 2 1 2 1 Z " fill="#F25605" transform="translate(268,240)"/>
<path d="" fill="#F25D07" transform="translate(0,0)"/>
<path d="M0 0 C2 1 2 1 2 1 Z " fill="#F45F06" transform="translate(355,218)"/>
<path d="M0 0 C2 1 2 1 2 1 Z " fill="#F46107" transform="translate(384,211)"/>
<path d="" fill="#F66606" transform="translate(0,0)"/>
<path d="M0 0 C2 1 2 1 2 1 Z " fill="#F66606" transform="translate(521,178)"/>
<path d="M0 0 C2 1 2 1 2 1 Z " fill="#F6690A" transform="translate(562,168)"/>
<path d="" fill="#821114" transform="translate(0,0)"/>
<path d="" fill="#E2231F" transform="translate(0,0)"/>
<path d="" fill="#E4231F" transform="translate(0,0)"/>
<path d="" fill="#E5221F" transform="translate(0,0)"/>
<path d="" fill="#E61A24" transform="translate(0,0)"/>
<path d="" fill="#EC1E1E" transform="translate(0,0)"/>
<path d="" fill="#ED1F1E" transform="translate(0,0)"/>
<path d="" fill="#E8291A" transform="translate(0,0)"/>
<path d="" fill="#F02618" transform="translate(0,0)"/>
<path d="" fill="#F12818" transform="translate(0,0)"/>
<path d="" fill="#ED1921" transform="translate(0,0)"/>
<path d="" fill="#EB1920" transform="translate(0,0)"/>
<path d="" fill="#EE2D16" transform="translate(0,0)"/>
<path d="" fill="#F22D12" transform="translate(0,0)"/>
<path d="" fill="#EC1D23" transform="translate(0,0)"/>
<path d="" fill="#EC3710" transform="translate(0,0)"/>
<path d="" fill="#F23510" transform="translate(0,0)"/>
<path d="" fill="#EF350D" transform="translate(0,0)"/>
<path d="" fill="#EF360D" transform="translate(0,0)"/>
<path d="" fill="#EB3811" transform="translate(0,0)"/>
<path d="" fill="#F0380E" transform="translate(0,0)"/>
<path d="" fill="#EC1E20" transform="translate(0,0)"/>
<path d="" fill="#ED1D21" transform="translate(0,0)"/>
<path d="" fill="#E84010" transform="translate(0,0)"/>
<path d="" fill="#E6410F" transform="translate(0,0)"/>
<path d="" fill="#EA3C0C" transform="translate(0,0)"/>
<path d="" fill="#ED3F0C" transform="translate(0,0)"/>
<path d="" fill="#E33C0E" transform="translate(0,0)"/>
<path d="" fill="#EE1F1F" transform="translate(0,0)"/>
<path d="" fill="#E83D0B" transform="translate(0,0)"/>
<path d="" fill="#EB4610" transform="translate(0,0)"/>
<path d="" fill="#F3221F" transform="translate(0,0)"/>
<path d="" fill="#ED450E" transform="translate(0,0)"/>
<path d="" fill="#F5231D" transform="translate(0,0)"/>
<path d="" fill="#F3211D" transform="translate(0,0)"/>
<path d="" fill="#F5211C" transform="translate(0,0)"/>
<path d="" fill="#ED261A" transform="translate(0,0)"/>
<path d="" fill="#F4241C" transform="translate(0,0)"/>
<path d="" fill="#F4251C" transform="translate(0,0)"/>
<path d="" fill="#F3231A" transform="translate(0,0)"/>
<path d="" fill="#F14D0A" transform="translate(0,0)"/>
<path d="" fill="#F12618" transform="translate(0,0)"/>
<path d="" fill="#F04B0A" transform="translate(0,0)"/>
<path d="" fill="#F22618" transform="translate(0,0)"/>
<path d="" fill="#F32619" transform="translate(0,0)"/>
<path d="" fill="#F52317" transform="translate(0,0)"/>
<path d="" fill="#F52718" transform="translate(0,0)"/>
<path d="" fill="#F42D14" transform="translate(0,0)"/>
<path d="" fill="#F42B16" transform="translate(0,0)"/>
<path d="" fill="#F72F14" transform="translate(0,0)"/>
<path d="" fill="#ED5309" transform="translate(0,0)"/>
<path d="" fill="#F45409" transform="translate(0,0)"/>
<path d="" fill="#F43011" transform="translate(0,0)"/>
<path d="" fill="#F73014" transform="translate(0,0)"/>
<path d="" fill="#F53210" transform="translate(0,0)"/>
<path d="" fill="#F83111" transform="translate(0,0)"/>
<path d="" fill="#F25608" transform="translate(0,0)"/>
<path d="" fill="#F35807" transform="translate(0,0)"/>
<path d="" fill="#F43510" transform="translate(0,0)"/>
<path d="" fill="#F73510" transform="translate(0,0)"/>
<path d="" fill="#F83511" transform="translate(0,0)"/>
<path d="" fill="#F73813" transform="translate(0,0)"/>
<path d="" fill="#F35707" transform="translate(0,0)"/>
<path d="" fill="#F43A0F" transform="translate(0,0)"/>
<path d="" fill="#F45A09" transform="translate(0,0)"/>
<path d="" fill="#F45B06" transform="translate(0,0)"/>
<path d="" fill="#F93E0D" transform="translate(0,0)"/>
<path d="" fill="#F53E0C" transform="translate(0,0)"/>
<path d="" fill="#F7400F" transform="translate(0,0)"/>
<path d="" fill="#F35906" transform="translate(0,0)"/>
<path d="" fill="#F63E0D" transform="translate(0,0)"/>
<path d="" fill="#F25D06" transform="translate(0,0)"/>
<path d="" fill="#F5410B" transform="translate(0,0)"/>
<path d="" fill="#F35D07" transform="translate(0,0)"/>
<path d="" fill="#F4400B" transform="translate(0,0)"/>
<path d="" fill="#F3440D" transform="translate(0,0)"/>
<path d="" fill="#F55D09" transform="translate(0,0)"/>
<path d="" fill="#F0440C" transform="translate(0,0)"/>
<path d="" fill="#F25F05" transform="translate(0,0)"/>
<path d="" fill="#F55C07" transform="translate(0,0)"/>
<path d="" fill="#F45F07" transform="translate(0,0)"/>
<path d="" fill="#F04A09" transform="translate(0,0)"/>
<path d="" fill="#F14A0A" transform="translate(0,0)"/>
<path d="" fill="#EF4D0D" transform="translate(0,0)"/>
<path d="" fill="#EF4D0A" transform="translate(0,0)"/>
<path d="" fill="#EE4C0B" transform="translate(0,0)"/>
<path d="" fill="#EE4F0A" transform="translate(0,0)"/>
<path d="" fill="#EE4D08" transform="translate(0,0)"/>
<path d="" fill="#EC4E0A" transform="translate(0,0)"/>
<path d="" fill="#F06108" transform="translate(0,0)"/>
<path d="" fill="#EE4F0A" transform="translate(0,0)"/>
<path d="" fill="#F75C05" transform="translate(0,0)"/>
<path d="" fill="#F05308" transform="translate(0,0)"/>
<path d="" fill="#F35D0A" transform="translate(0,0)"/>
<path d="" fill="#F55A07" transform="translate(0,0)"/>
<path d="" fill="#F35804" transform="translate(0,0)"/>
<path d="" fill="#F35A07" transform="translate(0,0)"/>
<path d="" fill="#F35C04" transform="translate(0,0)"/>
<path d="" fill="#F35A08" transform="translate(0,0)"/>
<path d="" fill="#F55A07" transform="translate(0,0)"/>
<path d="" fill="#F45F07" transform="translate(0,0)"/>
<path d="" fill="#F06206" transform="translate(0,0)"/>
<path d="" fill="#F05D05" transform="translate(0,0)"/>
<path d="" fill="#F16309" transform="translate(0,0)"/>
<path d="" fill="#F06308" transform="translate(0,0)"/>
<path d="" fill="#F66006" transform="translate(0,0)"/>
<path d="" fill="#F26205" transform="translate(0,0)"/>
<path d="" fill="#F56206" transform="translate(0,0)"/>
<path d="" fill="#F36105" transform="translate(0,0)"/>
<path d="" fill="#F66307" transform="translate(0,0)"/>
<path d="" fill="#F46006" transform="translate(0,0)"/>
<path d="" fill="#EF6105" transform="translate(0,0)"/>
<path d="" fill="#F66205" transform="translate(0,0)"/>
<path d="" fill="#F66308" transform="translate(0,0)"/>
<path d="" fill="#F56607" transform="translate(0,0)"/>
<path d="" fill="#EE630A" transform="translate(0,0)"/>
<path d="" fill="#EF6207" transform="translate(0,0)"/>
<path d="" fill="#EF6207" transform="translate(0,0)"/>
<path d="" fill="#F76606" transform="translate(0,0)"/>
<path d="" fill="#F56706" transform="translate(0,0)"/>
<path d="" fill="#F56606" transform="translate(0,0)"/>
<path d="" fill="#F76807" transform="translate(0,0)"/>
<path d="" fill="#F56708" transform="translate(0,0)"/>
<path d="" fill="#F96706" transform="translate(0,0)"/>
<path d="" fill="#F76808" transform="translate(0,0)"/>
<path d="" fill="#F26805" transform="translate(0,0)"/>
<path d="" fill="#F66708" transform="translate(0,0)"/>
<path d="" fill="#F56405" transform="translate(0,0)"/>
<path d="" fill="#F46708" transform="translate(0,0)"/>
<path d="" fill="#F56506" transform="translate(0,0)"/>
<path d="" fill="#F26708" transform="translate(0,0)"/>
</svg>
